<svg width="73" height="30" viewBox="0 0 73 30" fill="none" xmlns="http://www.w3.org/2000/svg">
<path d="M59.9915 22.078C59.9915 20.3269 60.0362 18.9351 59.9736 17.5524C59.9423 16.9202 59.7054 16.288 60.6666 16.288C61.4847 16.288 62.4191 16.1925 62.5086 17.3887C62.5801 18.3302 62.5354 19.2808 62.5354 20.2223C62.5354 21.9233 62.589 23.6289 62.4996 25.3254C62.4728 25.7984 62.1062 26.5262 61.7485 26.6353C61.3059 26.7718 60.5369 26.5535 60.2016 26.1987C58.8291 24.7614 57.5728 23.215 56.2673 21.7095C56.1555 21.5822 56.0169 21.4776 55.6593 21.1501C55.6593 22.651 55.6548 23.8836 55.6593 25.1117C55.6637 25.9849 55.4894 26.7263 54.4387 26.7854C53.5669 26.8355 53.1288 26.2669 53.1154 25.1026C53.093 22.4191 53.0528 19.731 53.0841 17.0475C53.0841 16.7883 53.5893 16.2743 53.7502 16.3198C54.4298 16.4972 55.2256 16.6791 55.6861 17.1522C57.1123 18.6304 58.4088 20.2404 59.987 22.0689L59.9915 22.078Z" fill="black"/>
<path d="M66.5028 16.2798C67.9468 16.1615 69.525 16.3389 70.8216 17.4942C72.4847 18.9723 73.1017 20.8235 72.5205 23.0158C71.984 25.0307 70.2538 26.5316 68.1883 26.7499C67.227 26.85 66.2569 26.8272 65.2867 26.8227C64.3434 26.8227 63.8516 26.3315 63.8471 25.3399C63.8382 22.5746 63.7935 19.8092 63.8248 17.0439C63.8248 16.7846 64.2405 16.3707 64.5222 16.3161C65.0945 16.2024 65.707 16.2798 66.5028 16.2798ZM66.3373 24.1983C68.0094 24.5349 69.1674 24.1301 69.8514 23.0203C70.4684 22.0152 70.3924 20.6871 69.6636 19.7274C68.9125 18.7449 67.7322 18.422 66.3418 18.8359V24.1983H66.3373Z" fill="black"/>
<path d="M63.8127 9.15895C63.8127 7.79446 63.853 6.42998 63.7948 5.07004C63.768 4.40144 64.005 4.17403 64.613 4.18312C65.8022 4.20132 67.0004 4.13309 68.1852 4.23315C70.6888 4.43783 72.7365 6.81658 72.7454 9.4273C72.7544 12.088 70.662 14.4713 68.1047 14.6578C67.139 14.7306 66.1689 14.6942 65.2032 14.6897C64.2777 14.6851 63.8574 14.1621 63.8574 13.2524C63.8574 11.8879 63.8574 10.5234 63.8574 9.15895C63.844 9.15895 63.8306 9.15895 63.8127 9.15895ZM66.3074 6.58917C66.3074 8.27203 66.3074 9.85484 66.3074 11.4376C66.3074 11.656 66.3432 11.8743 66.37 12.129C67.7426 12.37 68.9318 12.2108 69.7857 11.0101C70.4385 10.0913 70.4474 8.78599 69.7992 7.80811C68.9855 6.58462 67.8007 6.37085 66.3119 6.58917H66.3074Z" fill="black"/>
<path d="M51.987 9.42283C51.9691 12.2746 49.6488 14.617 46.8545 14.6033C44.0692 14.5897 41.7399 12.22 41.731 9.39099C41.722 6.48918 44.0603 4.15591 46.9395 4.1832C49.7695 4.21504 52.0049 6.53012 51.987 9.41828V9.42283ZM49.7963 9.37279C49.7963 7.72177 48.5355 6.42551 46.9171 6.40276C45.2584 6.38457 43.9217 7.71267 43.9261 9.38644C43.9306 11.0375 45.3166 12.4156 46.9305 12.3838C48.5177 12.3519 49.7963 11.0056 49.7918 9.37279H49.7963Z" fill="black"/>
<path d="M57.9027 4.18884C60.7282 4.22522 62.9592 6.55849 62.9368 9.44665C62.91 12.2893 60.5718 14.6317 57.7775 14.609C54.9475 14.5862 52.6137 12.1392 52.6763 9.26472C52.7434 6.4084 55.0637 4.15245 57.9027 4.19338V4.18884ZM57.782 6.4084C56.168 6.42659 54.8849 7.7274 54.8759 9.35569C54.867 11.0204 56.2127 12.3985 57.8401 12.3848C59.463 12.3757 60.7774 10.9749 60.7372 9.29656C60.7014 7.65463 59.4049 6.39021 57.782 6.4084Z" fill="black"/>
<path d="M52.4012 25.7584C52.0927 26.0631 51.7753 26.6453 51.4042 26.6817C50.908 26.7317 50.3223 26.4361 49.8752 26.1359C49.5175 25.8949 49.3432 25.158 49.0213 25.1126C48.0735 24.9807 47.0944 25.0352 46.1331 25.1262C45.923 25.1444 45.7129 25.6038 45.5743 25.8903C45.1898 26.7045 44.5818 27.0501 43.7636 26.6999C42.8739 26.3224 42.9007 25.5856 43.2226 24.7987C44.2912 22.1835 45.3507 19.5636 46.4237 16.9529C46.7456 16.1661 47.8365 16.0023 48.4758 16.6755C48.7486 16.9666 48.9408 17.3532 49.1017 17.7307C50.0809 20.0185 51.0421 22.3108 51.9988 24.6031C52.1285 24.9124 52.2224 25.2399 52.4012 25.7584ZM48.8246 23.0522C48.4445 22.097 48.1048 21.2374 47.6487 20.0912C47.1927 21.2783 46.8708 22.1243 46.5176 23.0522H48.829H48.8246Z" fill="black"/>
<path d="M36.6297 6.52306V8.50156C37.4657 8.50156 38.266 8.51066 39.0663 8.50156C39.8666 8.48792 40.5282 8.72898 40.5372 9.65228C40.5506 10.6029 39.8934 10.9349 39.0439 10.944C38.275 10.9531 37.5015 10.944 36.585 10.944C36.585 11.8218 36.585 12.5677 36.585 13.3136C36.5805 14.105 36.2497 14.6508 35.4226 14.6736C34.5374 14.6963 34.1573 14.1232 34.1439 13.2955C34.1082 10.4983 34.0813 7.69652 34.1126 4.89932C34.1126 4.65826 34.5776 4.22617 34.8369 4.22163C36.7325 4.1625 38.6282 4.18524 40.5238 4.19888C41.2123 4.20343 41.6728 4.55365 41.6772 5.29502C41.6817 6.05913 41.2749 6.50486 40.5104 6.51851C39.2541 6.54125 37.9978 6.52306 36.6208 6.52306H36.6297Z" fill="black"/>
<path d="M36.5882 24.2137C38.0948 24.2137 39.4629 24.2274 40.8265 24.2137C41.7251 24.2046 42.4092 24.4639 42.3957 25.5145C42.3779 26.5106 41.7072 26.7289 40.8623 26.7198C39.1499 26.7016 37.4376 26.7289 35.7253 26.7107C34.6165 26.6971 34.1516 26.2468 34.1382 25.137C34.1024 22.4126 34.08 19.6836 34.1203 16.9592C34.1203 16.7 34.6165 16.2497 34.9071 16.2269C35.6582 16.1678 36.4898 16.277 36.5569 17.3049C36.6284 18.3965 36.5882 19.5017 36.5882 20.5978C36.5882 21.7304 36.5882 22.8674 36.5882 24.2183V24.2137Z" fill="black"/>
<path d="M21.8481 0.530087C23.708 0.530087 25.5723 0.507346 27.4322 0.534636C29.3099 0.561926 30.7987 1.73538 30.8076 3.60473C30.83 7.64816 31.0267 11.7553 30.4097 15.7168C29.2205 23.3761 22.094 29.2707 14.4579 29.4117C10.9572 29.4754 7.45658 29.4435 3.95593 29.4208C2.02901 29.4117 0.52235 28.1928 0.513408 26.2779C0.491054 22.3118 0.30328 18.2821 0.893428 14.3887C2.05584 6.67028 9.02584 0.793887 16.7067 0.543732C18.419 0.489152 20.1313 0.534636 21.8437 0.534636C21.8437 0.534636 21.8437 0.525539 21.8437 0.520991L21.8481 0.530087ZM8.09591 27.6106C10.2151 27.6106 12.3432 27.7243 14.4534 27.5878C20.0598 27.224 24.3116 24.5496 27.1684 19.6011C29.4709 15.6077 29.0908 11.2231 29.0014 6.8795C29.0014 6.85221 28.8986 6.82492 28.8405 6.79308C25.4114 17.3224 18.4324 24.1584 8.09144 27.6106H8.09591ZM23.2609 2.35395C21.2759 2.35395 19.2864 2.29482 17.3013 2.36305C11.4758 2.56317 7.10786 5.27395 4.16159 10.3771C1.85465 14.366 2.24808 18.7505 2.34644 23.0941C2.34644 23.1214 2.45374 23.1442 2.49845 23.1624C5.92756 12.6376 12.8931 5.797 23.2609 2.35395ZM4.25995 24.2358C11.4043 17.4361 18.343 10.8274 25.4024 4.10959C16.1478 5.42404 6.46853 14.1977 4.25995 24.2358ZM27.0164 5.78791C19.9123 12.5512 13.0362 19.1007 5.98121 25.8186C15.4772 24.4586 25.0448 15.3257 27.0164 5.78791Z" fill="black"/>
</svg>
