<svg width="17" height="16" viewBox="0 0 17 16" fill="none" xmlns="http://www.w3.org/2000/svg">
<path d="M7.69213 1.19954C8.05858 0.590627 8.94137 0.590628 9.30782 1.19954L11.1389 4.24215C11.2705 4.4609 11.4853 4.61691 11.734 4.67452L15.1935 5.47575C15.8859 5.6361 16.1587 6.47569 15.6928 7.01237L13.3649 9.69403C13.1976 9.88683 13.1155 10.1393 13.1376 10.3936L13.4447 13.9314C13.5061 14.6394 12.7919 15.1583 12.1375 14.8811L8.86777 13.4959C8.63269 13.3963 8.36726 13.3963 8.13217 13.4959L4.86241 14.8811C4.20804 15.1583 3.49384 14.6394 3.55529 13.9314L3.86232 10.3936C3.8844 10.1393 3.80238 9.88683 3.63501 9.69403L1.30715 7.01237C0.841281 6.47569 1.11408 5.6361 1.80643 5.47575L5.26595 4.67452C5.51468 4.61691 5.72941 4.4609 5.86106 4.24215L7.69213 1.19954Z" fill="white" stroke="white" stroke-width="1.17857"/>
</svg>
