<svg width="17" height="13" viewBox="0 0 17 13" fill="none" xmlns="http://www.w3.org/2000/svg">
<path d="M16.48 1.9199C15.92 2.1599 15.2801 2.3199 14.6401 2.3999C15.2801 1.9999 15.84 1.3599 16.08 0.639905C15.44 1.0399 14.8 1.2799 14 1.4399C13.44 0.799905 12.56 0.399902 11.68 0.399902C9.92004 0.399902 8.48004 1.8399 8.48004 3.5999C8.48004 3.8399 8.48005 4.0799 8.56005 4.3199C5.92005 4.1599 3.52004 2.8799 1.92004 0.9599C1.68004 1.4399 1.52004 1.9999 1.52004 2.5599C1.52004 3.6799 2.08005 4.6399 2.96005 5.1999C2.40005 5.1999 1.92004 5.0399 1.52004 4.7999C1.52004 6.3199 2.64004 7.6799 4.08004 7.9199C3.84004 7.9999 3.52005 7.9999 3.20005 7.9999C2.96005 7.9999 2.80005 7.9999 2.56005 7.9199C2.96005 9.1999 4.16005 10.1599 5.60005 10.1599C4.48005 11.0399 3.12005 11.5199 1.60005 11.5199C1.36005 11.5199 1.12005 11.5199 0.800049 11.4399C2.24005 12.3199 3.92005 12.8799 5.76005 12.8799C11.68 12.8799 14.88 7.9999 14.88 3.7599V3.3599C15.52 3.1199 16.08 2.5599 16.48 1.9199Z" fill="white"/>
</svg>
